<?xml version="1.0" encoding="UTF-8" standalone="no"?>
<!DOCTYPE svg PUBLIC "-//W3C//DTD SVG 1.1//EN"
 "http://www.w3.org/Graphics/SVG/1.1/DTD/svg11.dtd">
<!-- Generated by graphviz version 10.0.1 (20240210.2158)
 -->
<!-- Title: Environments Pages: 1 -->
<svg width="1195pt" height="699pt"
 viewBox="0.00 0.00 1194.80 698.75" xmlns="http://www.w3.org/2000/svg" xmlns:xlink="http://www.w3.org/1999/xlink">
<g id="graph0" class="graph" transform="scale(1 1) rotate(0) translate(144 554.75)">
<title>Environments</title>
<polygon fill="white" stroke="none" points="-144,144 -144,-554.75 1050.8,-554.75 1050.8,144 -144,144"/>
<text text-anchor="middle" x="453.4" y="-5.5" font-family="Sans-Serif" font-size="15.00" fill="#2d3436">Environments</text>
<g id="clust1" class="cluster">
<title>cluster_CRM</title>
<path fill="#e5f5fd" stroke="#aeb6be" d="M20,-31.75C20,-31.75 886.8,-31.75 886.8,-31.75 892.8,-31.75 898.8,-37.75 898.8,-43.75 898.8,-43.75 898.8,-390.75 898.8,-390.75 898.8,-396.75 892.8,-402.75 886.8,-402.75 886.8,-402.75 20,-402.75 20,-402.75 14,-402.75 8,-396.75 8,-390.75 8,-390.75 8,-43.75 8,-43.75 8,-37.75 14,-31.75 20,-31.75"/>
<text text-anchor="middle" x="29.88" y="-387.35" font-family="Sans-Serif" font-size="12.00" fill="#2d3436">CRM</text>
</g>
<!-- 358f3b0d19a24f83bbd0519d13fcad75 -->
<g id="node1" class="node">
<title>358f3b0d19a24f83bbd0519d13fcad75</title>
<image xlink:href="sf.svg.png" width="100.8px" height="70.5231px" preserveAspectRatio="xMinYMin meet" x="16" y="-242.012"/>
<text text-anchor="middle" x="66.4" y="-139.5" font-family="Sans-Serif" font-size="13.00" fill="#2d3436">ST</text>
</g>
<!-- 80348000e8284e7f979488918ed00188 -->
<g id="node2" class="node">
<title>80348000e8284e7f979488918ed00188</title>
<image xlink:href="sf.svg.png" width="100.8px" height="70.5231px" preserveAspectRatio="xMinYMin meet" x="170.8" y="-143.012"/>
<text text-anchor="middle" x="221.2" y="-40.5" font-family="Sans-Serif" font-size="13.00" fill="#2d3436">SIT</text>
</g>
<!-- 358f3b0d19a24f83bbd0519d13fcad75&#45;&gt;80348000e8284e7f979488918ed00188 -->
<g id="edge1" class="edge">
<title>358f3b0d19a24f83bbd0519d13fcad75&#45;&gt;80348000e8284e7f979488918ed00188</title>
<path fill="none" stroke="#7b8894" d="M116.66,-150.95C116.66,-150.95 159.41,-150.95 159.41,-150.95"/>
<polygon fill="#7b8894" stroke="#7b8894" points="159.41,-154.45 169.41,-150.95 159.41,-147.45 159.41,-154.45"/>
</g>
<!-- 86b78bbbadb84f778be126deb3cd49fe -->
<g id="node6" class="node">
<title>86b78bbbadb84f778be126deb3cd49fe</title>
<image xlink:href="mulesoft.svg.png" width="100.8px" height="100.8px" preserveAspectRatio="xMinYMin meet" x="170.8" y="-356.15"/>
<text text-anchor="middle" x="221.2" y="-238.5" font-family="Sans-Serif" font-size="13.00" fill="#2d3436">DEV_INT</text>
</g>
<!-- 358f3b0d19a24f83bbd0519d13fcad75&#45;&gt;86b78bbbadb84f778be126deb3cd49fe -->
<g id="edge6" class="edge">
<title>358f3b0d19a24f83bbd0519d13fcad75&#45;&gt;86b78bbbadb84f778be126deb3cd49fe</title>
<path fill="none" stroke="#7b8894" d="M116.66,-256.25C116.66,-256.25 159.41,-256.25 159.41,-256.25"/>
<polygon fill="#7b8894" stroke="#7b8894" points="159.41,-259.75 169.41,-256.25 159.41,-252.75 159.41,-259.75"/>
</g>
<!-- 80348000e8284e7f979488918ed00188&#45;&gt;80348000e8284e7f979488918ed00188 -->
<g id="edge2" class="edge">
<title>80348000e8284e7f979488918ed00188&#45;&gt;80348000e8284e7f979488918ed00188</title>
<path fill="none" stroke="#7b8894" d="M171.09,-163.55C156.69,-163.55 144.8,-163.55 144.8,-163.55 144.8,-163.55 144.8,-199.25 144.8,-199.25 144.8,-199.25 298.8,-199.25 298.8,-199.25 298.8,-199.25 298.8,-131.55 298.8,-131.55 298.8,-131.55 282.74,-131.55 282.74,-131.55"/>
<polygon fill="#7b8894" stroke="#7b8894" points="282.74,-128.05 272.74,-131.55 282.74,-135.05 282.74,-128.05"/>
</g>
<!-- 178498af862741c19766a2af86d87e86 -->
<g id="node3" class="node">
<title>178498af862741c19766a2af86d87e86</title>
<image xlink:href="sf.svg.png" width="100.8px" height="70.5231px" preserveAspectRatio="xMinYMin meet" x="325.6" y="-146.012"/>
<text text-anchor="middle" x="376" y="-43.5" font-family="Sans-Serif" font-size="13.00" fill="#2d3436">UAT</text>
</g>
<!-- 80348000e8284e7f979488918ed00188&#45;&gt;178498af862741c19766a2af86d87e86 -->
<g id="edge3" class="edge">
<title>80348000e8284e7f979488918ed00188&#45;&gt;178498af862741c19766a2af86d87e86</title>
<path fill="none" stroke="#7b8894" d="M271.46,-86.95C271.46,-86.95 314.21,-86.95 314.21,-86.95"/>
<polygon fill="#7b8894" stroke="#7b8894" points="314.21,-90.45 324.21,-86.95 314.21,-83.45 314.21,-90.45"/>
</g>
<!-- 16db3465d3f54a40bec711b977e7b366 -->
<g id="node7" class="node">
<title>16db3465d3f54a40bec711b977e7b366</title>
<image xlink:href="mulesoft.svg.png" width="100.8px" height="100.8px" preserveAspectRatio="xMinYMin meet" x="635.2" y="-338.15"/>
<text text-anchor="middle" x="685.6" y="-220.5" font-family="Sans-Serif" font-size="13.00" fill="#2d3436">QA_INT</text>
</g>
<!-- 80348000e8284e7f979488918ed00188&#45;&gt;16db3465d3f54a40bec711b977e7b366 -->
<g id="edge7" class="edge">
<title>80348000e8284e7f979488918ed00188&#45;&gt;16db3465d3f54a40bec711b977e7b366</title>
<path fill="none" stroke="#7b8894" d="M221.8,-175.79C221.8,-205.13 221.8,-232.85 221.8,-232.85 221.8,-232.85 624.01,-232.85 624.01,-232.85"/>
<polygon fill="#7b8894" stroke="#7b8894" points="624.01,-236.35 634.01,-232.85 624.01,-229.35 624.01,-236.35"/>
</g>
<!-- c1494cab7e7d4ea69333ef3d1d149db1 -->
<g id="node4" class="node">
<title>c1494cab7e7d4ea69333ef3d1d149db1</title>
<image xlink:href="sf.svg.png" width="100.8px" height="70.5231px" preserveAspectRatio="xMinYMin meet" x="480.4" y="-146.012"/>
<text text-anchor="middle" x="530.8" y="-43.5" font-family="Sans-Serif" font-size="13.00" fill="#2d3436">Staging</text>
</g>
<!-- 178498af862741c19766a2af86d87e86&#45;&gt;c1494cab7e7d4ea69333ef3d1d149db1 -->
<g id="edge4" class="edge">
<title>178498af862741c19766a2af86d87e86&#45;&gt;c1494cab7e7d4ea69333ef3d1d149db1</title>
<path fill="none" stroke="#7b8894" d="M426.26,-110.75C426.26,-110.75 469.01,-110.75 469.01,-110.75"/>
<polygon fill="#7b8894" stroke="#7b8894" points="469.01,-114.25 479.01,-110.75 469.01,-107.25 469.01,-114.25"/>
</g>
<!-- 178498af862741c19766a2af86d87e86&#45;&gt;16db3465d3f54a40bec711b977e7b366 -->
<g id="edge8" class="edge">
<title>178498af862741c19766a2af86d87e86&#45;&gt;16db3465d3f54a40bec711b977e7b366</title>
<path fill="none" stroke="#7b8894" d="M376.8,-178.82C376.8,-204.82 376.8,-228.35 376.8,-228.35 376.8,-228.35 623.79,-228.35 623.79,-228.35"/>
<polygon fill="#7b8894" stroke="#7b8894" points="623.79,-231.85 633.79,-228.35 623.79,-224.85 623.79,-231.85"/>
</g>
<!-- bb1f93e0af93476b8e4dec53b0d6b84b -->
<g id="node5" class="node">
<title>bb1f93e0af93476b8e4dec53b0d6b84b</title>
<image xlink:href="sf.svg.png" width="100.8px" height="70.5231px" preserveAspectRatio="xMinYMin meet" x="635.2" y="-143.012"/>
<text text-anchor="middle" x="685.6" y="-40.5" font-family="Sans-Serif" font-size="13.00" fill="#2d3436">Production</text>
</g>
<!-- c1494cab7e7d4ea69333ef3d1d149db1&#45;&gt;bb1f93e0af93476b8e4dec53b0d6b84b -->
<g id="edge5" class="edge">
<title>c1494cab7e7d4ea69333ef3d1d149db1&#45;&gt;bb1f93e0af93476b8e4dec53b0d6b84b</title>
<path fill="none" stroke="#7b8894" d="M581.06,-109.25C581.06,-109.25 623.81,-109.25 623.81,-109.25"/>
<polygon fill="#7b8894" stroke="#7b8894" points="623.81,-112.75 633.81,-109.25 623.81,-105.75 623.81,-112.75"/>
</g>
<!-- c1494cab7e7d4ea69333ef3d1d149db1&#45;&gt;16db3465d3f54a40bec711b977e7b366 -->
<g id="edge9" class="edge">
<title>c1494cab7e7d4ea69333ef3d1d149db1&#45;&gt;16db3465d3f54a40bec711b977e7b366</title>
<path fill="none" stroke="#7b8894" d="M530.8,-179.15C530.8,-202.97 530.8,-223.85 530.8,-223.85 530.8,-223.85 623.83,-223.85 623.83,-223.85"/>
<polygon fill="#7b8894" stroke="#7b8894" points="623.83,-227.35 633.83,-223.85 623.83,-220.35 623.83,-227.35"/>
</g>
<!-- 047a0889a38843458bb306e18189b808 -->
<g id="node8" class="node">
<title>047a0889a38843458bb306e18189b808</title>
<image xlink:href="mulesoft.svg.png" width="100.8px" height="100.8px" preserveAspectRatio="xMinYMin meet" x="790" y="-158.15"/>
<text text-anchor="middle" x="840.4" y="-40.5" font-family="Sans-Serif" font-size="13.00" fill="#2d3436">PROD_INT</text>
</g>
<!-- bb1f93e0af93476b8e4dec53b0d6b84b&#45;&gt;047a0889a38843458bb306e18189b808 -->
<g id="edge10" class="edge">
<title>bb1f93e0af93476b8e4dec53b0d6b84b&#45;&gt;047a0889a38843458bb306e18189b808</title>
<path fill="none" stroke="#7b8894" d="M735.86,-107.75C735.86,-107.75 778.61,-107.75 778.61,-107.75"/>
<polygon fill="#7b8894" stroke="#7b8894" points="778.61,-111.25 788.61,-107.75 778.61,-104.25 778.61,-111.25"/>
</g>
</g>
</svg>
