<?xml version="1.0" encoding="UTF-8" standalone="no"?>
<!DOCTYPE svg PUBLIC "-//W3C//DTD SVG 1.1//EN"
 "http://www.w3.org/Graphics/SVG/1.1/DTD/svg11.dtd">
<!-- Generated by graphviz version 10.0.1 (20240210.2158)
 -->
<!-- Title: Environments Pages: 1 -->
<svg width="1195pt" height="699pt"
 viewBox="0.00 0.00 1194.80 698.75" xmlns="http://www.w3.org/2000/svg" xmlns:xlink="http://www.w3.org/1999/xlink">
<g id="graph0" class="graph" transform="scale(1 1) rotate(0) translate(144 554.75)">
<title>Environments</title>
<polygon fill="white" stroke="none" points="-144,144 -144,-554.75 1050.8,-554.75 1050.8,144 -144,144"/>
<text text-anchor="middle" x="453.4" y="-5.5" font-family="Sans-Serif" font-size="15.00" fill="#2d3436">Environments</text>
<g id="clust1" class="cluster">
<title>cluster_System</title>
<path fill="#e5f5fd" stroke="#aeb6be" d="M20,-31.75C20,-31.75 886.8,-31.75 886.8,-31.75 892.8,-31.75 898.8,-37.75 898.8,-43.75 898.8,-43.75 898.8,-390.75 898.8,-390.75 898.8,-396.75 892.8,-402.75 886.8,-402.75 886.8,-402.75 20,-402.75 20,-402.75 14,-402.75 8,-396.75 8,-390.75 8,-390.75 8,-43.75 8,-43.75 8,-37.75 14,-31.75 20,-31.75"/>
<text text-anchor="middle" x="35.88" y="-387.35" font-family="Sans-Serif" font-size="12.00" fill="#2d3436">System</text>
</g>
<!-- fe8ccd289f3348b685b8e47e5134918e -->
<g id="node1" class="node">
<title>fe8ccd289f3348b685b8e47e5134918e</title>
<image xlink:href="sf.svg.png" width="100.8px" height="70.5231px" preserveAspectRatio="xMinYMin meet" x="16" y="-242.012"/>
<text text-anchor="middle" x="66.4" y="-139.5" font-family="Sans-Serif" font-size="13.00" fill="#2d3436">ST</text>
</g>
<!-- c93192dbfa364282947596ced0cead51 -->
<g id="node2" class="node">
<title>c93192dbfa364282947596ced0cead51</title>
<image xlink:href="sf.svg.png" width="100.8px" height="70.5231px" preserveAspectRatio="xMinYMin meet" x="170.8" y="-143.012"/>
<text text-anchor="middle" x="221.2" y="-40.5" font-family="Sans-Serif" font-size="13.00" fill="#2d3436">SIT</text>
</g>
<!-- fe8ccd289f3348b685b8e47e5134918e&#45;&gt;c93192dbfa364282947596ced0cead51 -->
<g id="edge1" class="edge">
<title>fe8ccd289f3348b685b8e47e5134918e&#45;&gt;c93192dbfa364282947596ced0cead51</title>
<path fill="none" stroke="#7b8894" d="M116.66,-150.95C116.66,-150.95 159.41,-150.95 159.41,-150.95"/>
<polygon fill="#7b8894" stroke="#7b8894" points="159.41,-154.45 169.41,-150.95 159.41,-147.45 159.41,-154.45"/>
</g>
<!-- 2018b4fec27d4d3a99f1f052c3f2cae3 -->
<g id="node6" class="node">
<title>2018b4fec27d4d3a99f1f052c3f2cae3</title>
<image xlink:href="mulesoft.svg.png" width="100.8px" height="100.8px" preserveAspectRatio="xMinYMin meet" x="170.8" y="-356.15"/>
<text text-anchor="middle" x="221.2" y="-238.5" font-family="Sans-Serif" font-size="13.00" fill="#2d3436">DEV_INT</text>
</g>
<!-- fe8ccd289f3348b685b8e47e5134918e&#45;&gt;2018b4fec27d4d3a99f1f052c3f2cae3 -->
<g id="edge6" class="edge">
<title>fe8ccd289f3348b685b8e47e5134918e&#45;&gt;2018b4fec27d4d3a99f1f052c3f2cae3</title>
<path fill="none" stroke="#7b8894" d="M116.66,-256.25C116.66,-256.25 159.41,-256.25 159.41,-256.25"/>
<polygon fill="#7b8894" stroke="#7b8894" points="159.41,-259.75 169.41,-256.25 159.41,-252.75 159.41,-259.75"/>
</g>
<!-- c93192dbfa364282947596ced0cead51&#45;&gt;c93192dbfa364282947596ced0cead51 -->
<g id="edge2" class="edge">
<title>c93192dbfa364282947596ced0cead51&#45;&gt;c93192dbfa364282947596ced0cead51</title>
<path fill="none" stroke="#7b8894" d="M171.09,-163.55C156.69,-163.55 144.8,-163.55 144.8,-163.55 144.8,-163.55 144.8,-199.25 144.8,-199.25 144.8,-199.25 298.8,-199.25 298.8,-199.25 298.8,-199.25 298.8,-131.55 298.8,-131.55 298.8,-131.55 282.74,-131.55 282.74,-131.55"/>
<polygon fill="#7b8894" stroke="#7b8894" points="282.74,-128.05 272.74,-131.55 282.74,-135.05 282.74,-128.05"/>
</g>
<!-- 7ddaa348ed52404f84becc47263e0645 -->
<g id="node3" class="node">
<title>7ddaa348ed52404f84becc47263e0645</title>
<image xlink:href="sf.svg.png" width="100.8px" height="70.5231px" preserveAspectRatio="xMinYMin meet" x="325.6" y="-146.012"/>
<text text-anchor="middle" x="376" y="-43.5" font-family="Sans-Serif" font-size="13.00" fill="#2d3436">UAT</text>
</g>
<!-- c93192dbfa364282947596ced0cead51&#45;&gt;7ddaa348ed52404f84becc47263e0645 -->
<g id="edge3" class="edge">
<title>c93192dbfa364282947596ced0cead51&#45;&gt;7ddaa348ed52404f84becc47263e0645</title>
<path fill="none" stroke="#7b8894" d="M271.46,-86.95C271.46,-86.95 314.21,-86.95 314.21,-86.95"/>
<polygon fill="#7b8894" stroke="#7b8894" points="314.21,-90.45 324.21,-86.95 314.21,-83.45 314.21,-90.45"/>
</g>
<!-- 6722ee43b72c4a77a69ae7ca56313451 -->
<g id="node7" class="node">
<title>6722ee43b72c4a77a69ae7ca56313451</title>
<image xlink:href="mulesoft.svg.png" width="100.8px" height="100.8px" preserveAspectRatio="xMinYMin meet" x="635.2" y="-338.15"/>
<text text-anchor="middle" x="685.6" y="-220.5" font-family="Sans-Serif" font-size="13.00" fill="#2d3436">QA_INT</text>
</g>
<!-- c93192dbfa364282947596ced0cead51&#45;&gt;6722ee43b72c4a77a69ae7ca56313451 -->
<g id="edge7" class="edge">
<title>c93192dbfa364282947596ced0cead51&#45;&gt;6722ee43b72c4a77a69ae7ca56313451</title>
<path fill="none" stroke="#7b8894" d="M221.8,-175.79C221.8,-205.13 221.8,-232.85 221.8,-232.85 221.8,-232.85 624.01,-232.85 624.01,-232.85"/>
<polygon fill="#7b8894" stroke="#7b8894" points="624.01,-236.35 634.01,-232.85 624.01,-229.35 624.01,-236.35"/>
</g>
<!-- b68281706c9d4c399f85b4c604b2a8d3 -->
<g id="node4" class="node">
<title>b68281706c9d4c399f85b4c604b2a8d3</title>
<image xlink:href="sf.svg.png" width="100.8px" height="70.5231px" preserveAspectRatio="xMinYMin meet" x="480.4" y="-146.012"/>
<text text-anchor="middle" x="530.8" y="-43.5" font-family="Sans-Serif" font-size="13.00" fill="#2d3436">Staging</text>
</g>
<!-- 7ddaa348ed52404f84becc47263e0645&#45;&gt;b68281706c9d4c399f85b4c604b2a8d3 -->
<g id="edge4" class="edge">
<title>7ddaa348ed52404f84becc47263e0645&#45;&gt;b68281706c9d4c399f85b4c604b2a8d3</title>
<path fill="none" stroke="#7b8894" d="M426.26,-110.75C426.26,-110.75 469.01,-110.75 469.01,-110.75"/>
<polygon fill="#7b8894" stroke="#7b8894" points="469.01,-114.25 479.01,-110.75 469.01,-107.25 469.01,-114.25"/>
</g>
<!-- 7ddaa348ed52404f84becc47263e0645&#45;&gt;6722ee43b72c4a77a69ae7ca56313451 -->
<g id="edge8" class="edge">
<title>7ddaa348ed52404f84becc47263e0645&#45;&gt;6722ee43b72c4a77a69ae7ca56313451</title>
<path fill="none" stroke="#7b8894" d="M376.8,-178.82C376.8,-204.82 376.8,-228.35 376.8,-228.35 376.8,-228.35 623.79,-228.35 623.79,-228.35"/>
<polygon fill="#7b8894" stroke="#7b8894" points="623.79,-231.85 633.79,-228.35 623.79,-224.85 623.79,-231.85"/>
</g>
<!-- 28b9496528eb456aaa030cbfd97ea320 -->
<g id="node5" class="node">
<title>28b9496528eb456aaa030cbfd97ea320</title>
<image xlink:href="sf.svg.png" width="100.8px" height="70.5231px" preserveAspectRatio="xMinYMin meet" x="635.2" y="-143.012"/>
<text text-anchor="middle" x="685.6" y="-40.5" font-family="Sans-Serif" font-size="13.00" fill="#2d3436">Production</text>
</g>
<!-- b68281706c9d4c399f85b4c604b2a8d3&#45;&gt;28b9496528eb456aaa030cbfd97ea320 -->
<g id="edge5" class="edge">
<title>b68281706c9d4c399f85b4c604b2a8d3&#45;&gt;28b9496528eb456aaa030cbfd97ea320</title>
<path fill="none" stroke="#7b8894" d="M581.06,-109.25C581.06,-109.25 623.81,-109.25 623.81,-109.25"/>
<polygon fill="#7b8894" stroke="#7b8894" points="623.81,-112.75 633.81,-109.25 623.81,-105.75 623.81,-112.75"/>
</g>
<!-- b68281706c9d4c399f85b4c604b2a8d3&#45;&gt;6722ee43b72c4a77a69ae7ca56313451 -->
<g id="edge9" class="edge">
<title>b68281706c9d4c399f85b4c604b2a8d3&#45;&gt;6722ee43b72c4a77a69ae7ca56313451</title>
<path fill="none" stroke="#7b8894" d="M530.8,-179.15C530.8,-202.97 530.8,-223.85 530.8,-223.85 530.8,-223.85 623.83,-223.85 623.83,-223.85"/>
<polygon fill="#7b8894" stroke="#7b8894" points="623.83,-227.35 633.83,-223.85 623.83,-220.35 623.83,-227.35"/>
</g>
<!-- 1027813da81f4c6fb73efeb651a2ca5c -->
<g id="node8" class="node">
<title>1027813da81f4c6fb73efeb651a2ca5c</title>
<image xlink:href="mulesoft.svg.png" width="100.8px" height="100.8px" preserveAspectRatio="xMinYMin meet" x="790" y="-158.15"/>
<text text-anchor="middle" x="840.4" y="-40.5" font-family="Sans-Serif" font-size="13.00" fill="#2d3436">PROD_INT</text>
</g>
<!-- 28b9496528eb456aaa030cbfd97ea320&#45;&gt;1027813da81f4c6fb73efeb651a2ca5c -->
<g id="edge10" class="edge">
<title>28b9496528eb456aaa030cbfd97ea320&#45;&gt;1027813da81f4c6fb73efeb651a2ca5c</title>
<path fill="none" stroke="#7b8894" d="M735.86,-107.75C735.86,-107.75 778.61,-107.75 778.61,-107.75"/>
<polygon fill="#7b8894" stroke="#7b8894" points="778.61,-111.25 788.61,-107.75 778.61,-104.25 778.61,-111.25"/>
</g>
</g>
</svg>
