<?xml version="1.0" encoding="UTF-8" standalone="no"?>
<!DOCTYPE svg PUBLIC "-//W3C//DTD SVG 1.1//EN"
 "http://www.w3.org/Graphics/SVG/1.1/DTD/svg11.dtd">
<!-- Generated by graphviz version 10.0.1 (20240210.2158)
 -->
<!-- Title: Environments Pages: 1 -->
<svg width="1163pt" height="743pt"
 viewBox="0.00 0.00 1162.80 742.55" xmlns="http://www.w3.org/2000/svg" xmlns:xlink="http://www.w3.org/1999/xlink">
<g id="graph0" class="graph" transform="scale(1 1) rotate(0) translate(144 598.55)">
<title>Environments</title>
<polygon fill="white" stroke="none" points="-144,144 -144,-598.55 1018.8,-598.55 1018.8,144 -144,144"/>
<text text-anchor="middle" x="437.4" y="-5.5" font-family="Sans-Serif" font-size="15.00" fill="#2d3436">Environments</text>
<!-- ce63f3d7b482452abaae0e17bc490f14 -->
<g id="node1" class="node">
<title>ce63f3d7b482452abaae0e17bc490f14</title>
<image xlink:href="sf.svg.png" width="100.8px" height="70.5231px" preserveAspectRatio="xMinYMin meet" x="-2.84217e-14" y="-217.412"/>
<text text-anchor="middle" x="50.4" y="-114.9" font-family="Sans-Serif" font-size="13.00" fill="#2d3436">ST</text>
</g>
<!-- 0d3d06292b1f40ccb037d757f8ccb305 -->
<g id="node2" class="node">
<title>0d3d06292b1f40ccb037d757f8ccb305</title>
<image xlink:href="sf.svg.png" width="100.8px" height="70.5231px" preserveAspectRatio="xMinYMin meet" x="154.8" y="-217.412"/>
<text text-anchor="middle" x="205.2" y="-114.9" font-family="Sans-Serif" font-size="13.00" fill="#2d3436">SIT</text>
</g>
<!-- ce63f3d7b482452abaae0e17bc490f14&#45;&gt;0d3d06292b1f40ccb037d757f8ccb305 -->
<g id="edge1" class="edge">
<title>ce63f3d7b482452abaae0e17bc490f14&#45;&gt;0d3d06292b1f40ccb037d757f8ccb305</title>
<path fill="none" stroke="#7b8894" d="M100.66,-182.15C100.66,-182.15 143.41,-182.15 143.41,-182.15"/>
<polygon fill="#7b8894" stroke="#7b8894" points="143.41,-185.65 153.41,-182.15 143.41,-178.65 143.41,-185.65"/>
</g>
<!-- 205b00feeb614681b0d378afd8476e38 -->
<g id="node3" class="node">
<title>205b00feeb614681b0d378afd8476e38</title>
<image xlink:href="sf.svg.png" width="100.8px" height="70.5231px" preserveAspectRatio="xMinYMin meet" x="309.6" y="-307.412"/>
<text text-anchor="middle" x="360" y="-204.9" font-family="Sans-Serif" font-size="13.00" fill="#2d3436">UAT</text>
</g>
<!-- 0d3d06292b1f40ccb037d757f8ccb305&#45;&gt;205b00feeb614681b0d378afd8476e38 -->
<g id="edge2" class="edge">
<title>0d3d06292b1f40ccb037d757f8ccb305&#45;&gt;205b00feeb614681b0d378afd8476e38</title>
<path fill="none" stroke="#7b8894" d="M255.46,-227.15C255.46,-227.15 298.21,-227.15 298.21,-227.15"/>
<polygon fill="#7b8894" stroke="#7b8894" points="298.21,-230.65 308.21,-227.15 298.21,-223.65 298.21,-230.65"/>
</g>
<!-- 3a47e5747acf4e588aebc67fbf6ae80a -->
<g id="node6" class="node">
<title>3a47e5747acf4e588aebc67fbf6ae80a</title>
<image xlink:href="mulesoft.svg.png" width="100.8px" height="100.8px" preserveAspectRatio="xMinYMin meet" x="309.6" y="-142.55"/>
<text text-anchor="middle" x="360" y="-24.9" font-family="Sans-Serif" font-size="13.00" fill="#2d3436">DEV_INT</text>
</g>
<!-- 0d3d06292b1f40ccb037d757f8ccb305&#45;&gt;3a47e5747acf4e588aebc67fbf6ae80a -->
<g id="edge5" class="edge">
<title>0d3d06292b1f40ccb037d757f8ccb305&#45;&gt;3a47e5747acf4e588aebc67fbf6ae80a</title>
<path fill="none" stroke="#7b8894" d="M255.46,-137.15C255.46,-137.15 298.21,-137.15 298.21,-137.15"/>
<polygon fill="#7b8894" stroke="#7b8894" points="298.21,-140.65 308.21,-137.15 298.21,-133.65 298.21,-140.65"/>
</g>
<!-- 87378fed3d6c4cf7b9b681fe3250af51 -->
<g id="node4" class="node">
<title>87378fed3d6c4cf7b9b681fe3250af51</title>
<image xlink:href="sf.svg.png" width="100.8px" height="70.5231px" preserveAspectRatio="xMinYMin meet" x="464.4" y="-374.412"/>
<text text-anchor="middle" x="514.8" y="-271.9" font-family="Sans-Serif" font-size="13.00" fill="#2d3436">Staging</text>
</g>
<!-- 205b00feeb614681b0d378afd8476e38&#45;&gt;87378fed3d6c4cf7b9b681fe3250af51 -->
<g id="edge3" class="edge">
<title>205b00feeb614681b0d378afd8476e38&#45;&gt;87378fed3d6c4cf7b9b681fe3250af51</title>
<path fill="none" stroke="#7b8894" d="M410.26,-305.65C410.26,-305.65 453.01,-305.65 453.01,-305.65"/>
<polygon fill="#7b8894" stroke="#7b8894" points="453.01,-309.15 463.01,-305.65 453.01,-302.15 453.01,-309.15"/>
</g>
<!-- 01cca06c5b8342828a2001fca5c7fec8 -->
<g id="node7" class="node">
<title>01cca06c5b8342828a2001fca5c7fec8</title>
<image xlink:href="mulesoft.svg.png" width="100.8px" height="100.8px" preserveAspectRatio="xMinYMin meet" x="619.2" y="-256.55"/>
<text text-anchor="middle" x="669.6" y="-138.9" font-family="Sans-Serif" font-size="13.00" fill="#2d3436">QA_INT</text>
</g>
<!-- 205b00feeb614681b0d378afd8476e38&#45;&gt;01cca06c5b8342828a2001fca5c7fec8 -->
<g id="edge6" class="edge">
<title>205b00feeb614681b0d378afd8476e38&#45;&gt;01cca06c5b8342828a2001fca5c7fec8</title>
<path fill="none" stroke="#7b8894" d="M410.09,-237.25C410.09,-237.25 607.81,-237.25 607.81,-237.25"/>
<polygon fill="#7b8894" stroke="#7b8894" points="607.81,-240.75 617.81,-237.25 607.81,-233.75 607.81,-240.75"/>
</g>
<!-- 657b59f693a5415784fdd21caf2cf71e -->
<g id="node5" class="node">
<title>657b59f693a5415784fdd21caf2cf71e</title>
<image xlink:href="sf.svg.png" width="100.8px" height="70.5231px" preserveAspectRatio="xMinYMin meet" x="619.2" y="-421.412"/>
<text text-anchor="middle" x="669.6" y="-318.9" font-family="Sans-Serif" font-size="13.00" fill="#2d3436">Production</text>
</g>
<!-- 87378fed3d6c4cf7b9b681fe3250af51&#45;&gt;657b59f693a5415784fdd21caf2cf71e -->
<g id="edge4" class="edge">
<title>87378fed3d6c4cf7b9b681fe3250af51&#45;&gt;657b59f693a5415784fdd21caf2cf71e</title>
<path fill="none" stroke="#7b8894" d="M565.06,-362.65C565.06,-362.65 607.81,-362.65 607.81,-362.65"/>
<polygon fill="#7b8894" stroke="#7b8894" points="607.81,-366.15 617.81,-362.65 607.81,-359.15 607.81,-366.15"/>
</g>
<!-- 87378fed3d6c4cf7b9b681fe3250af51&#45;&gt;01cca06c5b8342828a2001fca5c7fec8 -->
<g id="edge7" class="edge">
<title>87378fed3d6c4cf7b9b681fe3250af51&#45;&gt;01cca06c5b8342828a2001fca5c7fec8</title>
<path fill="none" stroke="#7b8894" d="M565.12,-296.15C610.38,-296.15 669.8,-296.15 669.8,-296.15 669.8,-296.15 669.8,-285.88 669.8,-285.88"/>
<polygon fill="#7b8894" stroke="#7b8894" points="673.3,-285.88 669.8,-275.88 666.3,-285.88 673.3,-285.88"/>
</g>
<!-- 9631245eef114c649d8653c523d58948 -->
<g id="node8" class="node">
<title>9631245eef114c649d8653c523d58948</title>
<image xlink:href="mulesoft.svg.png" width="100.8px" height="100.8px" preserveAspectRatio="xMinYMin meet" x="774" y="-436.55"/>
<text text-anchor="middle" x="824.4" y="-318.9" font-family="Sans-Serif" font-size="13.00" fill="#2d3436">PROD_INT</text>
</g>
<!-- 657b59f693a5415784fdd21caf2cf71e&#45;&gt;9631245eef114c649d8653c523d58948 -->
<g id="edge8" class="edge">
<title>657b59f693a5415784fdd21caf2cf71e&#45;&gt;9631245eef114c649d8653c523d58948</title>
<path fill="none" stroke="#7b8894" d="M719.86,-386.15C719.86,-386.15 762.61,-386.15 762.61,-386.15"/>
<polygon fill="#7b8894" stroke="#7b8894" points="762.61,-389.65 772.61,-386.15 762.61,-382.65 762.61,-389.65"/>
</g>
</g>
</svg>
