<?xml version="1.0" encoding="UTF-8" standalone="no"?>
<!DOCTYPE svg PUBLIC "-//W3C//DTD SVG 1.1//EN"
 "http://www.w3.org/Graphics/SVG/1.1/DTD/svg11.dtd">
<!-- Generated by graphviz version 10.0.1 (20240210.2158)
 -->
<!-- Title: Environments Pages: 1 -->
<svg width="1163pt" height="806pt"
 viewBox="0.00 0.00 1162.80 805.55" xmlns="http://www.w3.org/2000/svg" xmlns:xlink="http://www.w3.org/1999/xlink">
<g id="graph0" class="graph" transform="scale(1 1) rotate(0) translate(144 661.55)">
<title>Environments</title>
<polygon fill="white" stroke="none" points="-144,144 -144,-661.55 1018.8,-661.55 1018.8,144 -144,144"/>
<text text-anchor="middle" x="437.4" y="-5.5" font-family="Sans-Serif" font-size="15.00" fill="#2d3436">Environments</text>
<!-- d7fc50d18b314f7ea745840dc85a278e -->
<g id="node1" class="node">
<title>d7fc50d18b314f7ea745840dc85a278e</title>
<image xlink:href="sf.svg.png" width="100.8px" height="70.5231px" preserveAspectRatio="xMinYMin meet" x="-2.84217e-14" y="-217.412"/>
<text text-anchor="middle" x="50.4" y="-114.9" font-family="Sans-Serif" font-size="13.00" fill="#2d3436">ST</text>
</g>
<!-- a5b01440db5847d989705d43e683f4c7 -->
<g id="node2" class="node">
<title>a5b01440db5847d989705d43e683f4c7</title>
<image xlink:href="sf.svg.png" width="100.8px" height="70.5231px" preserveAspectRatio="xMinYMin meet" x="154.8" y="-307.412"/>
<text text-anchor="middle" x="205.2" y="-204.9" font-family="Sans-Serif" font-size="13.00" fill="#2d3436">SIT</text>
</g>
<!-- d7fc50d18b314f7ea745840dc85a278e&#45;&gt;a5b01440db5847d989705d43e683f4c7 -->
<g id="edge1" class="edge">
<title>d7fc50d18b314f7ea745840dc85a278e&#45;&gt;a5b01440db5847d989705d43e683f4c7</title>
<path fill="none" stroke="#7b8894" d="M100.66,-227.15C100.66,-227.15 143.41,-227.15 143.41,-227.15"/>
<polygon fill="#7b8894" stroke="#7b8894" points="143.41,-230.65 153.41,-227.15 143.41,-223.65 143.41,-230.65"/>
</g>
<!-- cd088f70a0e64a2fbea64874b4c1724e -->
<g id="node6" class="node">
<title>cd088f70a0e64a2fbea64874b4c1724e</title>
<image xlink:href="mulesoft.svg.png" width="100.8px" height="100.8px" preserveAspectRatio="xMinYMin meet" x="154.8" y="-142.55"/>
<text text-anchor="middle" x="205.2" y="-24.9" font-family="Sans-Serif" font-size="13.00" fill="#2d3436">DEV_INT</text>
</g>
<!-- d7fc50d18b314f7ea745840dc85a278e&#45;&gt;cd088f70a0e64a2fbea64874b4c1724e -->
<g id="edge5" class="edge">
<title>d7fc50d18b314f7ea745840dc85a278e&#45;&gt;cd088f70a0e64a2fbea64874b4c1724e</title>
<path fill="none" stroke="#7b8894" d="M100.66,-137.15C100.66,-137.15 143.41,-137.15 143.41,-137.15"/>
<polygon fill="#7b8894" stroke="#7b8894" points="143.41,-140.65 153.41,-137.15 143.41,-133.65 143.41,-140.65"/>
</g>
<!-- 1573697eb096498f9db2b31f34c905b7 -->
<g id="node3" class="node">
<title>1573697eb096498f9db2b31f34c905b7</title>
<image xlink:href="sf.svg.png" width="100.8px" height="70.5231px" preserveAspectRatio="xMinYMin meet" x="309.6" y="-374.412"/>
<text text-anchor="middle" x="360" y="-271.9" font-family="Sans-Serif" font-size="13.00" fill="#2d3436">UAT</text>
</g>
<!-- a5b01440db5847d989705d43e683f4c7&#45;&gt;1573697eb096498f9db2b31f34c905b7 -->
<g id="edge2" class="edge">
<title>a5b01440db5847d989705d43e683f4c7&#45;&gt;1573697eb096498f9db2b31f34c905b7</title>
<path fill="none" stroke="#7b8894" d="M255.46,-305.65C255.46,-305.65 298.21,-305.65 298.21,-305.65"/>
<polygon fill="#7b8894" stroke="#7b8894" points="298.21,-309.15 308.21,-305.65 298.21,-302.15 298.21,-309.15"/>
</g>
<!-- 0c3da934e38d481e9d393e55946fd1a2 -->
<g id="node7" class="node">
<title>0c3da934e38d481e9d393e55946fd1a2</title>
<image xlink:href="mulesoft.svg.png" width="100.8px" height="100.8px" preserveAspectRatio="xMinYMin meet" x="619.2" y="-319.55"/>
<text text-anchor="middle" x="669.6" y="-201.9" font-family="Sans-Serif" font-size="13.00" fill="#2d3436">QA_INT</text>
</g>
<!-- a5b01440db5847d989705d43e683f4c7&#45;&gt;0c3da934e38d481e9d393e55946fd1a2 -->
<g id="edge6" class="edge">
<title>a5b01440db5847d989705d43e683f4c7&#45;&gt;0c3da934e38d481e9d393e55946fd1a2</title>
<path fill="none" stroke="#7b8894" d="M255.34,-237.25C255.34,-237.25 607.8,-237.25 607.8,-237.25"/>
<polygon fill="#7b8894" stroke="#7b8894" points="607.8,-240.75 617.8,-237.25 607.8,-233.75 607.8,-240.75"/>
</g>
<!-- 40b2a5da1817444d8a24acc13f08b5d7 -->
<g id="node4" class="node">
<title>40b2a5da1817444d8a24acc13f08b5d7</title>
<image xlink:href="sf.svg.png" width="100.8px" height="70.5231px" preserveAspectRatio="xMinYMin meet" x="464.4" y="-461.412"/>
<text text-anchor="middle" x="514.8" y="-358.9" font-family="Sans-Serif" font-size="13.00" fill="#2d3436">Staging</text>
</g>
<!-- 1573697eb096498f9db2b31f34c905b7&#45;&gt;40b2a5da1817444d8a24acc13f08b5d7 -->
<g id="edge3" class="edge">
<title>1573697eb096498f9db2b31f34c905b7&#45;&gt;40b2a5da1817444d8a24acc13f08b5d7</title>
<path fill="none" stroke="#7b8894" d="M410.26,-382.65C410.26,-382.65 453.01,-382.65 453.01,-382.65"/>
<polygon fill="#7b8894" stroke="#7b8894" points="453.01,-386.15 463.01,-382.65 453.01,-379.15 453.01,-386.15"/>
</g>
<!-- 1573697eb096498f9db2b31f34c905b7&#45;&gt;0c3da934e38d481e9d393e55946fd1a2 -->
<g id="edge7" class="edge">
<title>1573697eb096498f9db2b31f34c905b7&#45;&gt;0c3da934e38d481e9d393e55946fd1a2</title>
<path fill="none" stroke="#7b8894" d="M410.09,-304.15C410.09,-304.15 607.81,-304.15 607.81,-304.15"/>
<polygon fill="#7b8894" stroke="#7b8894" points="607.81,-307.65 617.81,-304.15 607.81,-300.65 607.81,-307.65"/>
</g>
<!-- 21bb22f7813d405391140291dbb778be -->
<g id="node5" class="node">
<title>21bb22f7813d405391140291dbb778be</title>
<image xlink:href="sf.svg.png" width="100.8px" height="70.5231px" preserveAspectRatio="xMinYMin meet" x="619.2" y="-484.412"/>
<text text-anchor="middle" x="669.6" y="-381.9" font-family="Sans-Serif" font-size="13.00" fill="#2d3436">Production</text>
</g>
<!-- 40b2a5da1817444d8a24acc13f08b5d7&#45;&gt;21bb22f7813d405391140291dbb778be -->
<g id="edge4" class="edge">
<title>40b2a5da1817444d8a24acc13f08b5d7&#45;&gt;21bb22f7813d405391140291dbb778be</title>
<path fill="none" stroke="#7b8894" d="M565.06,-437.65C565.06,-437.65 607.81,-437.65 607.81,-437.65"/>
<polygon fill="#7b8894" stroke="#7b8894" points="607.81,-441.15 617.81,-437.65 607.81,-434.15 607.81,-441.15"/>
</g>
<!-- 40b2a5da1817444d8a24acc13f08b5d7&#45;&gt;0c3da934e38d481e9d393e55946fd1a2 -->
<g id="edge8" class="edge">
<title>40b2a5da1817444d8a24acc13f08b5d7&#45;&gt;0c3da934e38d481e9d393e55946fd1a2</title>
<path fill="none" stroke="#7b8894" d="M565.12,-369.25C610.38,-369.25 669.8,-369.25 669.8,-369.25 669.8,-369.25 669.8,-348.82 669.8,-348.82"/>
<polygon fill="#7b8894" stroke="#7b8894" points="673.3,-348.82 669.8,-338.82 666.3,-348.82 673.3,-348.82"/>
</g>
<!-- 57174267b4c84005ac17adf4c4dbfe90 -->
<g id="node8" class="node">
<title>57174267b4c84005ac17adf4c4dbfe90</title>
<image xlink:href="mulesoft.svg.png" width="100.8px" height="100.8px" preserveAspectRatio="xMinYMin meet" x="774" y="-499.55"/>
<text text-anchor="middle" x="824.4" y="-381.9" font-family="Sans-Serif" font-size="13.00" fill="#2d3436">PROD_INT</text>
</g>
<!-- 21bb22f7813d405391140291dbb778be&#45;&gt;57174267b4c84005ac17adf4c4dbfe90 -->
<g id="edge9" class="edge">
<title>21bb22f7813d405391140291dbb778be&#45;&gt;57174267b4c84005ac17adf4c4dbfe90</title>
<path fill="none" stroke="#7b8894" d="M719.86,-449.15C719.86,-449.15 762.61,-449.15 762.61,-449.15"/>
<polygon fill="#7b8894" stroke="#7b8894" points="762.61,-452.65 772.61,-449.15 762.61,-445.65 762.61,-452.65"/>
</g>
</g>
</svg>
